# xmcd
#
# Track frame offsets:
#	150
#	19702
#	33680
#	54880
#	78805
#	93830
#	113035
#	136327
#	150925
#	177955
#	200652
#
# Disc length: 2935 seconds
#
# Revision: 1
# Processed by: cddbd v1.5.1PL0 Copyright (c) Steve Scherf et al.
# Submitted via: audiograbber 1.83.01
#
DISCID=7c0b750b
DTITLE=Tommy Chung - Blues Talk
DYEAR=2001
DGENRE=Blues
TTITLE0=All Your Love
TTITLE1=Mean Mistreator
TTITLE2=Yonder's Wall
TTITLE3=How Long
TTITLE4=For You My Love
TTITLE5=Goodbye Down The Road
TTITLE6=Trouble In Mind
TTITLE7=Walkiing By Myself
TTITLE8=Love, Life and Money
TTITLE9=Walking Throu' The Park
TTITLE10=Goodbye Down the Road (Acoustic)
EXTD=
EXTT0=
EXTT1=
EXTT2=
EXTT3=
EXTT4=
EXTT5=
EXTT6=
EXTT7=
EXTT8=
EXTT9=
EXTT10=
PLAYORDER=
